<?xml version="1.0" encoding="UTF-8" standalone="no"?>
<!-- Created with Inkscape (http://www.inkscape.org/) -->

<svg
   xmlns:dc="http://purl.org/dc/elements/1.1/"
   xmlns:cc="http://creativecommons.org/ns#"
   xmlns:rdf="http://www.w3.org/1999/02/22-rdf-syntax-ns#"
   xmlns:svg="http://www.w3.org/2000/svg"
   xmlns="http://www.w3.org/2000/svg"
   xmlns:sodipodi="http://sodipodi.sourceforge.net/DTD/sodipodi-0.dtd"
   xmlns:inkscape="http://www.inkscape.org/namespaces/inkscape"
   width="210mm"
   height="297mm"
   viewBox="0 0 744.09448819 1052.3622047"
   id="svg2"
   version="1.1"
   inkscape:version="0.91 r13725"
   sodipodi:docname="rocket.svg">
  <defs
     id="defs4">
    <inkscape:path-effect
       effect="spiro"
       id="path-effect5408"
       is_visible="true" />
    <inkscape:path-effect
       effect="spiro"
       id="path-effect4278"
       is_visible="true" />
    <inkscape:path-effect
       is_visible="true"
       id="path-effect4274"
       effect="spiro" />
    <inkscape:path-effect
       effect="spiro"
       id="path-effect4270"
       is_visible="true" />
    <inkscape:path-effect
       is_visible="true"
       id="path-effect4264"
       effect="spiro" />
    <inkscape:path-effect
       is_visible="true"
       id="path-effect4252"
       effect="spiro" />
    <inkscape:path-effect
       is_visible="true"
       id="path-effect4201"
       effect="spiro" />
    <inkscape:path-effect
       is_visible="true"
       id="path-effect4197"
       effect="spiro" />
    <inkscape:path-effect
       effect="spiro"
       id="path-effect5429"
       is_visible="true" />
    <inkscape:path-effect
       is_visible="true"
       id="path-effect5425"
       effect="spiro" />
    <inkscape:path-effect
       effect="spiro"
       id="path-effect5408-9"
       is_visible="true" />
    <inkscape:path-effect
       effect="spiro"
       id="path-effect4278-4"
       is_visible="true" />
    <inkscape:path-effect
       is_visible="true"
       id="path-effect4274-1"
       effect="spiro" />
    <inkscape:path-effect
       effect="spiro"
       id="path-effect4270-9"
       is_visible="true" />
    <inkscape:path-effect
       is_visible="true"
       id="path-effect4264-5"
       effect="spiro" />
    <inkscape:path-effect
       is_visible="true"
       id="path-effect4252-7"
       effect="spiro" />
    <inkscape:path-effect
       is_visible="true"
       id="path-effect4201-4"
       effect="spiro" />
    <inkscape:path-effect
       is_visible="true"
       id="path-effect4197-1"
       effect="spiro" />
  </defs>
  <sodipodi:namedview
     id="base"
     pagecolor="#ffffff"
     bordercolor="#666666"
     borderopacity="1.0"
     inkscape:pageopacity="0.0"
     inkscape:pageshadow="2"
     inkscape:zoom="0.98994949"
     inkscape:cx="25.067157"
     inkscape:cy="521.22426"
     inkscape:document-units="px"
     inkscape:current-layer="layer1"
     showgrid="false"
     inkscape:window-width="2560"
     inkscape:window-height="1378"
     inkscape:window-x="0"
     inkscape:window-y="0"
     inkscape:window-maximized="1" />
  <metadata
     id="metadata7">
    <rdf:RDF>
      <cc:Work
         rdf:about="">
        <dc:format>image/svg+xml</dc:format>
        <dc:type
           rdf:resource="http://purl.org/dc/dcmitype/StillImage" />
        <dc:title></dc:title>
      </cc:Work>
    </rdf:RDF>
  </metadata>
  <g
     inkscape:label="Layer 1"
     inkscape:groupmode="layer"
     id="layer1">
    <text
       xml:space="preserve"
       style="font-style:normal;font-weight:normal;font-size:40px;line-height:125%;font-family:sans-serif;letter-spacing:0px;word-spacing:0px;fill:#000000;fill-opacity:1;stroke:none;stroke-width:1px;stroke-linecap:butt;stroke-linejoin:miter;stroke-opacity:1"
       x="-260"
       y="-561.92352"
       id="text4211"
       sodipodi:linespacing="125%"><tspan
         sodipodi:role="line"
         id="tspan4213"
         x="-260"
         y="-561.92352"
         style="font-style:normal;font-variant:normal;font-weight:normal;font-stretch:normal;font-size:180px;font-family:Ani;-inkscape-font-specification:Ani" /></text>
    <g
       id="g4319"
       inkscape:export-xdpi="90"
       inkscape:export-ydpi="90"
       transform="matrix(2.29592,0,0,2.2410304,300.3657,1307.3562)">
      <g
         inkscape:export-ydpi="90"
         inkscape:export-xdpi="90"
         inkscape:label="Layer 1"
         id="layer1-16"
         transform="translate(-480.62215,-680.84193)">
        <path
           sodipodi:nodetypes="czczzczzcczzcssczc"
           inkscape:connector-curvature="0"
           inkscape:original-d="m 522.88061,147.95113 c 0,0 -37.0925,20.54498 -51.71347,57.4594 -14.62097,36.91442 -3.44756,135.696 -3.44756,135.696 0,0 -29.06132,31.39898 -40.22159,43.577 -11.16027,12.17802 -21.07949,36.12647 -18.38701,51.71382 2.69248,15.58735 26.54683,42.12563 26.54683,42.12563 0,0 -1.57502,-36.02092 4.48125,-49.02076 6.05627,-12.99984 15.6886,-23.9543 21.83458,-24.13269 6.14598,-0.17839 36.77402,4.5965 36.77402,4.5965 l 36.77402,-5e-4 c 0,0 38.19508,-4.87644 42.25906,-4.596 4.06398,0.28045 14.17513,12.96788 17.71457,25.42131 3.53944,12.45343 2.34183,47.11671 2.34183,47.11671 0,0 28.20775,-21.98268 26.34966,-38.90906 -0.92905,-8.46318 -5.24098,-39.59326 -13.38365,-54.31496 -9.51169,-17.19685 -40.80583,-43.577 -40.80583,-43.577 0,0 11.6653,-97.87513 -1.14919,-134.54681 -12.81449,-36.67168 -45.96752,-58.60859 -45.96752,-58.60859 z"
           inkscape:path-effect="#path-effect5408-9"
           id="path5406-2"
           d="m 522.88061,147.95113 c -21.71051,14.3862 -39.68575,34.35868 -51.71347,57.4594 -21.63322,41.54926 -22.94299,93.1018 -3.44756,135.696 -15.32646,12.58322 -28.90408,27.29352 -40.22159,43.577 -5.32182,7.65696 -10.16857,15.70488 -13.58589,24.38086 -3.41733,8.67598 -5.3761,18.02597 -4.80112,27.33296 0.53373,8.63934 3.27345,17.13343 7.88828,24.45643 4.61483,7.32301 11.09522,13.45979 18.65855,17.6692 -4.05579,-16.22221 -2.44866,-33.80281 4.48125,-49.02076 4.59049,-10.08064 11.81624,-19.40776 21.83458,-24.13269 5.89528,-2.78038 12.58645,-3.84766 19.05416,-3.03924 6.46771,0.80842 12.69032,3.48983 17.71986,7.63574 l 36.77402,-5e-4 c 5.34806,-5.51855 12.66037,-9.09336 20.30012,-9.92424 7.63974,-0.83089 15.54958,1.0884 21.95894,5.32824 8.77352,5.80375 14.32314,15.46358 17.71457,25.42131 5.13586,15.07963 5.95708,31.60212 2.34183,47.11671 13.82522,-8.36753 23.71125,-22.96569 26.34966,-38.90906 1.55477,-9.39514 0.68764,-19.10334 -1.82431,-28.28899 -2.51195,-9.18564 -6.63715,-17.87379 -11.55934,-26.02597 -10.36137,-17.16063 -24.36198,-32.11204 -40.80583,-43.577 18.73901,-42.2677 18.30906,-92.60536 -1.14919,-134.54681 -10.5423,-22.7235 -26.4105,-42.95545 -45.96752,-58.60859 z"
           style="fill:#9dd8ff;fill-opacity:1;fill-rule:evenodd;stroke:#9dd8ff;stroke-width:4;stroke-linecap:round;stroke-linejoin:round;stroke-miterlimit:4;stroke-dasharray:none;stroke-opacity:1" />
        <path
           style="fill:#c877cb;fill-opacity:1;fill-rule:evenodd;stroke:#c877cb;stroke-width:4.08443546;stroke-linecap:round;stroke-linejoin:round;stroke-miterlimit:4;stroke-dasharray:none;stroke-opacity:1"
           d="m 481.34056,187.20291 c -4.46673,5.83017 -8.566,11.91882 -12.22946,18.24308 -28.25315,48.77365 -20.4434,129.77449 -3.59773,160.82575 16.84567,31.05126 32.36538,43.65142 32.36538,43.65142 l 38.35685,0 c 0,0 19.0015,-13.54761 35.96108,-44.80137 16.95957,-31.25377 24.06628,-109.49821 -1.19992,-158.5278 -3.43718,-6.66991 -7.3166,-13.12656 -11.58367,-19.34032 -10.38661,8.04548 -24.40658,12.56114 -39.01894,12.5675 -14.6336,-0.0127 -28.66899,-4.54757 -39.05359,-12.61826 z"
           id="path4199-0"
           inkscape:connector-curvature="0"
           sodipodi:nodetypes="cszcczsccc" />
        <path
           style="fill:#f9ff98;fill-opacity:1;fill-rule:evenodd;stroke:#f9ff98;stroke-width:4;stroke-linecap:round;stroke-linejoin:round;stroke-miterlimit:4;stroke-dasharray:none;stroke-opacity:1"
           d="m 496.90576,411.81909 c -7.62978,12.17612 -12.14506,26.28638 -13.00158,40.62994 -1.68542,28.22445 11.55757,56.91758 34.12915,73.94649 20.31692,-19.15965 31.37496,-47.72624 29.25355,-75.57169 -1.01678,-13.34624 -4.92446,-26.46487 -11.37638,-38.19214 l -39.00474,-0.8126 z"
           id="path4272-2"
           inkscape:path-effect="#path-effect4274-1"
           inkscape:original-d="m 496.90576,411.81909 c 0,0 -14.26978,19.98519 -13.00158,40.62994 1.2682,20.64475 34.12915,73.94649 34.12915,73.94649 0,0 28.44957,-55.43997 29.25355,-75.57169 0.80398,-20.13172 -11.37638,-38.19214 -11.37638,-38.19214 z"
           inkscape:connector-curvature="0"
           sodipodi:nodetypes="czczcc" />
        <path
           sodipodi:nodetypes="czczcc"
           inkscape:connector-curvature="0"
           inkscape:original-d="m 496.90576,411.81909 c 0,0 -0.4556,2.10802 0.8126,22.75277 1.2682,20.64475 20.31497,30.06616 20.31497,30.06616 0,0 16.26059,-7.49665 17.06457,-27.62837 0.80398,-20.13172 0.8126,-24.37796 0.8126,-24.37796 z"
           inkscape:path-effect="#path-effect4278-4"
           id="path4276-2"
           d="m 496.90576,411.81909 c -1.35408,7.52633 -1.07494,15.34221 0.8126,22.75277 3.04546,11.9566 10.35815,22.77939 20.31497,30.06616 8.26141,-7.24183 14.28785,-16.99894 17.06457,-27.62837 2.07197,-7.93163 2.35178,-16.32596 0.8126,-24.37796 l -39.00474,-0.8126 z"
           style="fill:#ffec98;fill-opacity:1;fill-rule:evenodd;stroke:#ffec98;stroke-width:4;stroke-linecap:round;stroke-linejoin:round;stroke-miterlimit:4;stroke-dasharray:none;stroke-opacity:1" />
        <rect
           style="fill:#808080;fill-opacity:1;stroke:none;stroke-width:4;stroke-linecap:round;stroke-linejoin:round;stroke-miterlimit:4;stroke-dasharray:none;stroke-dashoffset:0;stroke-opacity:1"
           id="rect4266-9"
           width="52.006321"
           height="16.251974"
           x="490.84277"
           y="402.94351"
           ry="8.1259871" />
        <ellipse
           style="fill:#808080;fill-opacity:1;stroke:#808080;stroke-width:5.57000017;stroke-linecap:round;stroke-linejoin:round;stroke-miterlimit:4;stroke-dasharray:none;stroke-dashoffset:0;stroke-opacity:1"
           id="path6042"
           cx="518.45581"
           cy="259.00635"
           rx="22.12398"
           ry="22.98587" />
      </g>
      <path
         inkscape:export-ydpi="90"
         inkscape:export-xdpi="90"
         inkscape:connector-curvature="0"
         id="path4317"
         d="m 61.283379,-273.66664 c 0,-0.79246 -2.046493,-2.70567 -3.735404,-3.49213 l -1.800311,-0.83833 -19.244278,-0.004 c -13.843354,-0.002 -19.641986,0.11567 -20.661372,0.42108 -0.7794,0.23351 -2.1819,1.1122 -3.116667,1.95264 l -1.699579,1.52806 -2.3010679,-2.57764 c -12.5348268,-14.04131 -25.2576931,-34.09477 -30.2615401,-47.69738 -12.24222,-33.27963 -14.048597,-83.8497 -4.299965,-120.37878 4.276228,-16.02345 9.756319,-27.95421 19.2922754,-42.00139 4.3437868,-6.39872 6.25947611,-8.75 7.12901789,-8.75 0.39558001,0 2.02807431,0.89637 3.62776541,1.99192 9.8531323,6.74797 22.5850683,10.50808 35.5809283,10.50808 12.925861,0 25.259257,-3.59014 35.133925,-10.22717 2.706093,-1.81883 3.690886,-2.30214 4.35254,-2.13607 1.932017,0.4849 12.696075,18.99925 16.843093,28.97038 6.0804,14.61976 10.1411,32.79468 12.009,53.75 0.70474,7.9062 0.59956,29.9369 -0.18415,38.57143 -1.8093,19.93389 -5.38894,37.0218 -10.469268,49.97653 -4.219954,10.76079 -13.050386,25.08844 -22.562197,36.60785 -5.934886,7.18754 -13.632746,14.99366 -13.632746,13.82449 z m -17.347497,-123.0951 c 10.961975,-2.85809 18.776068,-13.21649 18.776068,-24.88968 0,-9.44443 -4.266643,-17.30544 -12.162625,-22.40887 -4.710678,-3.04465 -11.999128,-4.32435 -17.714961,-3.11036 -5.14501,1.09275 -10.528492,4.39304 -13.971728,8.56522 -8.8698573,10.74765 -7.7608,26.82435 2.491761,36.1202 6.235146,5.65332 14.660303,7.78875 22.581485,5.72349 z"
         style="fill:#ff9800;fill-opacity:1;stroke-width:9.39999962;stroke-linejoin:round;stroke-miterlimit:4;stroke-dasharray:none" />
    </g>
  </g>
</svg>
